#!OML:ASF F:\VICON\USERDATA\INSTALL\rory3\rory3.ASF
:FULLY-SPECIFIED
:DEGREES
145
root -0.103301 17.9737 -0.630329 3.27012 -10.3857 1.68877
lowerback -0.868511 -1.84927 -4.49249
upperback -0.903823 -2.44284 2.61495
thorax -0.141488 -1.2014 5.2004
lowerneck -25.0324 0.169337 -9.22359
upperneck 9.00982 2.36854 5.38187
head 6.55838 1.30359 3.53905
rclavicle 3.39673e-014 7.95139e-015
rhumerus -32.0302 -0.920834 -80.2524
rradius 30.7993
rwrist 19.8621
rhand -18.0941 8.15792
rfingers 7.12502
rthumb 8.17947 -21.6638
lclavicle 3.39673e-014 7.95139e-015
lhumerus 40.6871 -5.32013 51.3655
lradius 104.092
lwrist -11.4477
lhand -42.5468 24.232
lfingers 7.12502
lthumb -15.4219 53.6367
rfemur -8.88233 9.13832 14.6088
rtibia 25.8766
rfoot -17.0919 -3.65221
rtoes 4.3806
lfemur 0.746281 -2.3288 -22.2422
ltibia 11.0687
lfoot -10.3845 6.58481
ltoes -13.3773
146
root -0.10313 17.9732 -0.624561 3.26231 -10.3859 1.6259
lowerback -0.822361 -1.85331 -4.42675
upperback -0.924567 -2.45039 2.65313
thorax -0.188829 -1.20365 5.20489
lowerneck -25.0638 0.128023 -9.22473
upperneck 8.72303 2.32494 5.34099
head 6.47247 1.28433 3.51529
rclavicle -1.43622e-014 -2.38542e-014
rhumerus -32.1071 -0.856237 -80.2334
rradius 30.8285
rwrist 19.9056
rhand -18.1309 8.04878
rfingers 7.12502
rthumb 8.14404 -21.7743
lclavicle -1.43622e-014 -2.38542e-014
lhumerus 40.9878 -4.94921 51.2163
lradius 104.039
lwrist -11.4878
lhand -42.745 24.0435
lfingers 7.12502
lthumb -15.6128 53.4334
rfemur -8.82211 9.21558 14.6877
rtibia 25.842
rfoot -17.1633 -3.70768
rtoes 4.17432
lfemur 0.750098 -2.41086 -22.1767
ltibia 11.0963
lfoot -10.4249 6.65056
ltoes -12.8732
147
root -0.104162 17.9744 -0.618316 3.30942 -10.3703 1.57468
lowerback -0.825526 -1.86748 -4.37953
upperback -0.983225 -2.46963 2.6813
thorax -0.245845 -1.2106 5.20836
lowerneck -25.2519 0.116382 -9.09925
upperneck 8.56615 2.29586 5.27986
head 6.45355 1.27345 3.47155
rclavicle -4.28629e-014 3.18055e-015
rhumerus -32.1895 -0.768027 -80.2206
rradius 30.7934
rwrist 19.916
rhand -18.1874 8.05576
rfingers 7.12502
rthumb 8.08947 -21.7694
lclavicle -4.28629e-014 3.18055e-015
lhumerus 41.2641 -4.63583 51.1065
lradius 104.031
lwrist -11.5181
lhand -42.6747 24.324
lfingers 7.12502
lthumb -15.5451 53.7192
rfemur -8.81981 9.2216 14.7438
rtibia 25.8172
rfoot -17.1817 -3.78033
rtoes 4.01314
lfemur 0.740021 -2.40846 -22.1146
ltibia 11.1205
lfoot -10.4422 6.60993
ltoes -12.9819
148
root -0.104485 17.9744 -0.613855 3.34374 -10.3832 1.59546
lowerback -0.830274 -1.87153 -4.4004
upperback -1.01187 -2.47489 2.68335
thorax -0.271134 -1.2118 5.22276
lowerneck -25.5105 0.104409 -9.1204
upperneck 8.39648 2.28652 5.44542
head 6.43531 1.2893 3.53018
rclavicle -4.15708e-014 -8.74653e-015
rhumerus -32.1839 -0.723981 -80.2119
rradius 30.7041
rwrist 19.867
rhand -18.2193 8.15749
rfingers 7.12502
rthumb 8.05865 -21.6689
lclavicle -4.15708e-014 -8.74653e-015
lhumerus 41.6327 -4.31926 50.976
lradius 103.963
lwrist -11.3573
lhand -42.671 24.4041
lfingers 7.12502
lthumb -15.5415 53.7996
rfemur -8.83714 9.24954 14.7139
rtibia 25.796
rfoot -17.1701 -3.84065
rtoes 3.99375
lfemur 0.729199 -2.44055 -22.1367
ltibia 11.1337
lfoot -10.4667 6.63609
ltoes -13.1037
149
root -0.105204 17.9736 -0.611528 3.33449 -10.3805 1.62626
lowerback -0.791913 -1.87534 -4.45695
upperback -1.03158 -2.48126 2.70123
thorax -0.30911 -1.21319 5.27532
lowerneck -25.6938 0.10944 -9.08989
upperneck 8.17896 2.29706 5.47322
head 6.39036 1.30355 3.53467
rclavicle -3.25261e-014 5.56597e-015
rhumerus -32.1737 -0.795077 -80.158
rradius 30.6578
rwrist 19.9365
rhand -18.1978 8.16894
rfingers 7.12502
rthumb 8.07939 -21.6566
lclavicle -3.25261e-014 5.56597e-015
lhumerus 41.9782 -4.03521 50.842
lradius 103.895
lwrist -11.2164
lhand -43.0216 24.2082
lfingers 7.12502
lthumb -15.8791 53.5771
rfemur -8.81975 9.28378 14.6855
rtibia 25.7992
rfoot -17.2404 -3.84894
rtoes 3.89396
lfemur 0.728977 -2.37319 -22.168
ltibia 11.0964
lfoot -10.4393 6.59825
ltoes -12.8914
150
root -0.104701 17.9722 -0.605991 3.30794 -10.3621 1.63184
lowerback -0.815017 -1.87716 -4.43871
upperback -1.01971 -2.48285 2.69468
thorax -0.284739 -1.21504 5.25696
lowerneck -25.8335 0.132092 -8.99898
upperneck 7.92515 2.31301 5.46312
head 6.32757 1.31907 3.51622
rclavicle 2.30342e-014 -2.14687e-014
rhumerus -32.1456 -0.964795 -80.1172
rradius 30.5772
rwrist 20.0594
rhand -18.2607 8.29675
rfingers 7.12502
rthumb 8.01871 -21.5311
lclavicle 2.30342e-014 -2.14687e-014
lhumerus 42.398 -3.69351 50.6704
lradius 103.872
lwrist -11.1585
lhand -43.1037 24.1914
lfingers 7.12502
lthumb -15.9582 53.5541
rfemur -8.78 9.26663 14.6811
rtibia 25.835
rfoot -17.3126 -3.7705
rtoes 4.0496
lfemur 0.813738 -2.31596 -22.1801
ltibia 10.9904
lfoot -10.4235 6.5492
ltoes -12.7259
151
root -0.10479 17.9722 -0.600143 3.32507 -10.3907 1.72517
lowerback -0.870494 -1.86672 -4.50854
upperback -1.05091 -2.46669 2.66445
thorax -0.286288 -1.20585 5.26402
lowerneck -25.8344 0.0782469 -9.11876
upperneck 7.62683 2.2551 5.66305
head 6.23089 1.31124 3.58981
rclavicle 3.23274e-014 -3.97569e-015
rhumerus -32.1402 -1.08652 -80.0754
rradius 30.4664
rwrist 20.1213
rhand -18.2912 8.53858
rfingers 7.12502
rthumb 7.98927 -21.2904
lclavicle 3.23274e-014 -3.97569e-015
lhumerus 42.7913 -3.35952 50.5031
lradius 103.869
lwrist -11.3056
lhand -42.8229 24.6024
lfingers 7.12502
lthumb -15.6878 53.9865
rfemur -8.81785 9.28042 14.5679
rtibia 25.8788
rfoot -17.3556 -3.7174
rtoes 4.41748
lfemur 0.871028 -2.25419 -22.2879
ltibia 10.8455
lfoot -10.3427 6.53814
ltoes -13.0668
152
root -0.104392 17.9716 -0.594674 3.34919 -10.4056 1.82628
lowerback -0.901121 -1.86927 -4.59134
upperback -1.11346 -2.46888 2.65497
thorax -0.330413 -1.20383 5.30147
lowerneck -25.8016 0.0344264 -9.16093
upperneck 7.40865 2.20912 5.66966
head 6.15748 1.29166 3.58878
rclavicle 1.87852e-014 -4.77083e-015
rhumerus -32.1674 -1.13465 -80.0161
rradius 30.3488
rwrist 20.1364
rhand -18.2109 8.62423
rfingers 7.12502
rthumb 8.06676 -21.2018
lclavicle 1.87852e-014 -4.77083e-015
lhumerus 43.0927 -3.09929 50.3916
lradius 103.854
lwrist -11.4345
lhand -42.6393 24.8566
lfingers 7.12502
lthumb -15.5109 54.2544
rfemur -8.86647 9.25089 14.4396
rtibia 25.9172
rfoot -17.3923 -3.64774
rtoes 4.46875
lfemur 0.914574 -2.25368 -22.4068
ltibia 10.6966
lfoot -10.2644 6.54407
ltoes -13.1013
153
root -0.101916 17.9703 -0.585067 3.35274 -10.4235 1.89117
lowerback -0.949399 -1.87946 -4.59923
upperback -1.15037 -2.48077 2.65742
thorax -0.339482 -1.20864 5.30738
lowerneck -25.8611 0.046958 -9.03239
upperneck 7.10639 2.21782 5.4808
head 6.06953 1.2879 3.50179
rclavicle -8.02593e-015 -1.03368e-014
rhumerus -32.2084 -1.09796 -79.9629
rradius 30.2901
rwrist 20.1103
rhand -18.2645 8.77243
rfingers 7.12502
rthumb 8.01504 -21.0556
lclavicle -8.02593e-015 -1.03368e-014
lhumerus 43.3356 -2.82795 50.3338
lradius 103.898
lwrist -11.5471
lhand -42.4493 25.0185
lfingers 7.12502
lthumb -15.328 54.4304
rfemur -8.86851 9.18075 14.3437
rtibia 25.9498
rfoot -17.4007 -3.53788
rtoes 4.35275
lfemur 0.989767 -2.28994 -22.5054
ltibia 10.5912
lfoot -10.246 6.58193
ltoes -13.0931
154
root -0.100899 17.9694 -0.578216 3.34883 -10.4714 1.89286
lowerback -0.944017 -1.87395 -4.57324
upperback -1.09345 -2.47349 2.67433
thorax -0.285025 -1.208 5.30932
lowerneck -26.293 0.0556965 -8.7291
upperneck 6.68904 2.20887 5.19566
head 6.00231 1.27678 3.3571
rclavicle -2.08724e-015 0
rhumerus -32.0893 -0.942571 -79.9776
rradius 30.3153
rwrist 19.9769
rhand -18.3401 8.94779
rfingers 7.12502
rthumb 7.94211 -20.883
lclavicle -2.08724e-015 0
lhumerus 43.7417 -2.42637 50.2012
lradius 103.869
lwrist -11.6739
lhand -43.0005 25.0227
lfingers 7.12502
lthumb -15.8588 54.3933
rfemur -8.8606 9.1952 14.3303
rtibia 25.9675
rfoot -17.4052 -3.49964
rtoes 4.22525
lfemur 1.03117 -2.35418 -22.5359
ltibia 10.5724
lfoot -10.2522 6.70856
ltoes -13.0146
155
root -0.101275 17.9685 -0.573853 3.34862 -10.5126 1.84981
lowerback -0.884697 -1.83689 -4.5287
upperback -1.02727 -2.42614 2.689
thorax -0.257157 -1.18677 5.30079
lowerneck -26.806 0.00251049 -8.59417
upperneck 6.38772 2.14412 5.15509
head 5.98408 1.25456 3.31738
rclavicle -4.4329e-014 1.59028e-015
rhumerus -31.9269 -1.01954 -79.9693
rradius 30.3027
rwrist 19.9812
rhand -18.2783 8.74549
rfingers 7.12502
rthumb 8.00171 -21.083
lclavicle -4.4329e-014 1.59028e-015
lhumerus 44.2876 -2.06366 50.0762
lradius 103.733
lwrist -11.6565
lhand -44.1946 24.7774
lfingers 7.12502
lthumb -17.0085 54.0528
rfemur -8.84904 9.25053 14.3796
rtibia 25.9718
rfoot -17.3694 -3.54352
rtoes 4.07157
lfemur 1.0377 -2.24749 -22.4838
ltibia 10.6032
lfoot -10.2707 6.65192
ltoes -12.9801
156
root -0.100603 17.9664 -0.569213 3.34376 -10.5031 1.77948
lowerback -0.835976 -1.82658 -4.43963
upperback -1.02263 -2.41451 2.70662
thorax -0.283929 -1.1807 5.2704
lowerneck -27.0896 -0.0563632 -8.83042
upperneck 6.35968 2.12284 5.50367
head 6.01192 1.27278 3.47246
rclavicle 2.56184e-014 -1.03368e-014
rhumerus -31.9098 -1.15181 -79.9338
rradius 30.3173
rwrist 20.0658
rhand -18.1797 8.54958
rfingers 7.12502
rthumb 8.09693 -21.2753
lclavicle 2.56184e-014 -1.03368e-014
lhumerus 44.7211 -1.74121 49.9482
lradius 103.635
lwrist -11.605
lhand -44.5699 24.9896
lfingers 7.12502
lthumb -17.3697 54.2335
rfemur -8.80955 9.26693 14.463
rtibia 25.9705
rfoot -17.3818 -3.59575
rtoes 3.92754
lfemur 1.04804 -2.22728 -22.4032
ltibia 10.6544
lfoot -10.3372 6.63554
ltoes -12.7892
157
root -0.100619 17.9656 -0.5654 3.3399 -10.5016 1.77717
lowerback -0.857648 -1.82714 -4.41955
upperback -1.02402 -2.41456 2.71263
thorax -0.273729 -1.18108 5.26452
lowerneck -27.2636 -0.0842188 -8.98479
upperneck 6.24068 2.12425 5.72678
head 5.99434 1.29331 3.57238
rclavicle 2.2239e-014 -2.06736e-014
rhumerus -31.9183 -1.30165 -79.8903
rradius 30.3263
rwrist 20.2092
rhand -18.19 8.43863
rfingers 7.12502
rthumb 8.087 -21.3866
lclavicle 2.2239e-014 -2.06736e-014
lhumerus 45.0899 -1.40842 49.8376
lradius 103.612
lwrist -11.6073
lhand -44.3322 25.3795
lfingers 7.12502
lthumb -17.141 54.6435
rfemur -8.79623 9.27466 14.4701
rtibia 25.9756
rfoot -17.4322 -3.59295
rtoes 4.06674
lfemur 1.05212 -2.21393 -22.3979
ltibia 10.6744
lfoot -10.3468 6.60516
ltoes -12.7135
158
root -0.100565 17.9654 -0.561064 3.34569 -10.492 1.79788
lowerback -0.866599 -1.83491 -4.4347
upperback -1.05198 -2.42464 2.71831
thorax -0.295452 -1.18482 5.2792
lowerneck -27.5444 0.000315463 -8.6687
upperneck 6.25186 2.19381 5.40833
head 6.03856 1.30814 3.42853
rclavicle 2.10712e-014 7.15625e-015
rhumerus -31.938 -1.41233 -79.8445
rradius 30.2877
rwrist 20.3149
rhand -18.1813 8.46684
rfingers 7.12502
rthumb 8.09538 -21.3581
lclavicle 2.10712e-014 7.15625e-015
lhumerus 45.4593 -1.07809 49.7553
lradius 103.465
lwrist -11.8148
lhand -44.3563 24.9938
lfingers 7.12502
lthumb -17.1642 54.2557
rfemur -8.79082 9.27536 14.4494
rtibia 25.9821
rfoot -17.4477 -3.57469
rtoes 4.30211
lfemur 1.06549 -2.21294 -22.4231
ltibia 10.6525
lfoot -10.3234 6.60809
ltoes -12.7995
159
root -0.100814 17.9646 -0.556018 3.30986 -10.4885 1.8528
lowerback -0.784693 -1.84031 -4.50341
upperback -1.14312 -2.43497 2.72283
thorax -0.431175 -1.18366 5.32783
lowerneck -27.9284 0.091864 -8.28606
upperneck 6.68078 2.2675 4.98802
head 6.23724 1.31078 3.24916
rclavicle -2.89232e-014 2.14687e-014
rhumerus -32.0697 -1.44904 -79.8095
rradius 30.2572
rwrist 20.3815
rhand -18.1554 8.5172
rfingers 7.12502
rthumb 8.12033 -21.3068
lclavicle -2.89232e-014 2.14687e-014
lhumerus 45.7846 -0.854492 49.6218
lradius 103.155
lwrist -11.8589
lhand -44.8327 24.4355
lfingers 7.12502
lthumb -17.6226 53.6568
rfemur -8.73883 9.29467 14.3963
rtibia 25.9926
rfoot -17.4713 -3.54025
rtoes 4.5164
lfemur 1.15609 -2.22065 -22.4838
ltibia 10.57
lfoot -10.3106 6.59722
ltoes -12.7877
